<svg xmlns="http://www.w3.org/2000/svg" viewBox="0 0 253.33 333.009"><defs><style>.cls-1{fill:#ffce05;}</style></defs><g id="图层_2" data-name="图层 2"><g id="图层_1-2" data-name="图层 1"><path d="M40.944,301.319v31.647H48.7V301.319ZM168.457,190.6A110.846,110.846,0,0,0,57.741,301.319v31.647H89.369V301.319h.01a79.167,79.167,0,0,1,79.078-79.079v-.02h31.648V190.6Zm0-24.12v6.5h31.648v-6.5Zm0,11.97v6.494h31.648v-6.494ZM221.616,57.189v6.137h31.638V57.189ZM101.265,0A79.857,79.857,0,0,0,38.01,128.627,166.8,166.8,0,0,0,0,234.883v98.083H31.638V301.319h.01V234.862a139.2,139.2,0,0,1,3.836-31.729l-.113.112a136.081,136.081,0,0,1,4.756-15.629c.051-.143.1-.276.144-.4A131.592,131.592,0,0,1,61.9,149.37a79.639,79.639,0,0,0,20.765,8.194c.317.071.644.143.951.2a1,1,0,0,0,.174.041c.245.051.491.1.726.154.3.061.583.122.88.174.112.03.215.051.317.071l.184.031c1.79.337,3.324.593,4.48.757.133.02.256.031.368.051.594.082,1.064.143,1.392.184.061.01.122.01.173.02.092.011.2.021.3.031.01,0,.031.01.051,0v.01a79.623,79.623,0,0,0,8.6.461h67.192v.02h31.648V128.115H101.919c-.787,0-1.319,0-2.117-.041-1.258-.02-2.5-.1-3.734-.245-.173-.011-.358-.031-.542-.052-.838-.1-1.657-.224-2.475-.357-.522-.093-1.043-.2-1.545-.307s-.971-.2-1.452-.338c-.972-.235-1.811-.47-2.383-.624-.113-.03-.205-.061-.3-.092-.338-.092-.532-.153-.532-.153,22.514-16.274,50.366-25.889,80.654-26.892h85.758V67.377H164.335v.041a166.845,166.845,0,0,0-103.679,38.45,48.2,48.2,0,0,1,40.609-74.23h44.218V31.7l74.64.041h33.131V0ZM221.616,42.6h31.638V36.461H221.616Zm0,10.49h31.638V46.951H221.616Z"/><path class="cls-1" d="M38.013,128.509A167.122,167.122,0,0,0,0,234.883v98.083l31.714.043v-31.76h.01V234.793a139.255,139.255,0,0,1,3.836-31.73l-.113.113a136.1,136.1,0,0,1,4.757-15.63c.051-.143.1-.276.143-.4A131.6,131.6,0,0,1,61.981,149.3a217.718,217.718,0,0,1,24.937-23.465c22.514-16.274,50.378-25.731,80.666-26.734l85.746-.085V67.307H164.412v.041A166.846,166.846,0,0,0,60.733,105.8S46.855,117.915,38.013,128.509Z"/></g></g></svg>